<?xml version="1.0" encoding="utf-8"?>
<!-- Generator: Adobe Illustrator 25.0.1, SVG Export Plug-In . SVG Version: 6.00 Build 0)  -->
<svg version="1.1" id="Calque_2_1_" xmlns="http://www.w3.org/2000/svg" xmlns:xlink="http://www.w3.org/1999/xlink" x="0px"
	 y="0px" viewBox="0 0 132.5 150.1" style="enable-background:new 0 0 132.5 150.1;" xml:space="preserve">
<style type="text/css">
	.st0{fill:#5FBEAC;}
	.st1{fill:#008272;}
	.st2{fill:#89CFC1;}
	.st3{fill:#043C40;}
</style>
<g>
	<g>
		<path class="st0" d="M80,72.9c-2.3,1.3-9.7,6-12.3,6.2h-1.5c-0.1,0-0.2,0-0.3,0c-0.1,0-0.2,0-0.3,0h-1.5c-2.6-0.2-10-2.5-12.3-3.8
			c0,1.1-0.5,11.9-3.4,14.1c-0.3,0.2-5.7,5.5-12.4,8.3c4.8,4.8,19,11.7,29,11.6c0,0,0.3,0,0.8,0c0.5,0,0.8,0,0.8,0
			c9.9,0.2,24.2-6.7,29-11.6c-6.7-2.8-12.1-8.1-12.4-8.3C80.5,87.2,80,74.1,80,72.9z"/>
	</g>
	<path class="st1" d="M115.4,103.4L88.7,92.3c0,0-0.4,10-21.9,10C47.5,102.2,46,91.8,46,91.8l-26.9,9c-5,1.6-9.2,5.2-11.6,9.9
		c-6.2,12.1-5.2,34.3-7.6,39.5c25.2,0.2,43,0,65.5,0c22.3,0,43.2,0,66.9,0c-1.4-3.2-1.6-23.6-6.1-35.5
		C124.2,109.6,120.4,105.6,115.4,103.4z"/>
	<g>
		<path class="st2" d="M77.1,26.1l-34.8,6.4c0,0-3.6,25.8,5.7,39.3c0,0,4.4,6.2,10.5,9.8c2.2,1.3,4.6,2.2,7.1,2.4H67
			c3.4-0.2,6.7-1.9,9.4-3.9c4.8-3.6,6.8-5.7,8.1-8.2c9.1-17.2,5.4-40.5,5.4-40.5L77.1,26.1z"/>
		<path class="st2" d="M38.7,43.8c-1.5,1.8,1.2,21.9,7,17.7l-3.4-16.1C42.3,45.4,40.1,42.1,38.7,43.8z"/>
		<path class="st2" d="M87.7,45.5l-1.3,16c5.8,4.2,8.4-15.9,7-17.7C91.9,42.1,87.7,45.5,87.7,45.5z"/>
		<path class="st3" d="M69.6,9.1c-35.2,0-29.4,26.6-27.8,43.2c0,0.4,0.6,0.4,0.7,0c0.8-4.9,4.1-16.2,12.3-16.6
			c11.7-0.5,21.2-3.1,25.1-6.6c0,0,3.6,5.6,6.4,11.3c2.1,4.2,3.8,7.8,3.4,12.3C89.8,52.7,105.5,9.1,69.6,9.1z"/>
		<path class="st3" d="M57.4,5.2c-5.6,4.7-2,11.5-2,11.5s23.1,11.4,26-2.3C84.3,0.8,64.5-0.8,57.4,5.2z"/>
	</g>
</g>
</svg>
