<?xml version="1.0" encoding="utf-8"?>

<svg version="1.1" id="Calque_1" xmlns="http://www.w3.org/2000/svg" xmlns:xlink="http://www.w3.org/1999/xlink" x="0px" y="0px"
	 viewBox="0 0 1991.4 1425.2" style="enable-background:new 0 0 1991.4 1425.2;" xml:space="preserve">
<style type="text/css">
	.st0{fill:#00EAD1;}
	.st1{fill:#008875;}
</style>
<path class="st0" d="M1507.7,818.2l-14.9-5.8l5.8-14.9l14.9,5.8L1507.7,818.2z M1497.1,810.5l8.6,3.3l3.3-8.6l-8.6-3.3L1497.1,810.5
	z"/>
<path class="st0" d="M1338.3,374.6l-17.2-15.1l15.1-17.2l17.2,15.1L1338.3,374.6z M1325.8,359.2l12.2,10.7l10.7-12.2l-12.2-10.7
	L1325.8,359.2z"/>
<path class="st0" d="M1169.7,254.2l-18.3-3.1l3.1-18.3l18.3,3.1L1169.7,254.2z M1155.2,248.3l11.7,2l2-11.7l-11.7-2L1155.2,248.3z"
	/>
<path class="st0" d="M918.6,230.2l-3-15.7l15.7-3l3,15.7L918.6,230.2z M919.5,217.2l1.7,9.1l9.1-1.7l-1.7-9.1L919.5,217.2z"/>
<path class="st0" d="M629.8,382.8l-16.9-10.3l10.3-16.9l16.9,10.3L629.8,382.8z M617.6,371.4l11.1,6.8l6.8-11.1l-11.1-6.8
	L617.6,371.4z"/>
<path class="st0" d="M1459.6,528.7l-9.8-26l26-9.8l9.8,26L1459.6,528.7z M1454.1,504.7l7.5,19.7l19.7-7.5l-7.5-19.7L1454.1,504.7z"
	/>
<path class="st0" d="M1516.1,82.7l-9.8-16.3l16.3-9.8l9.8,16.3L1516.1,82.7z M1510.9,67.6l6.3,10.5l10.5-6.3l-6.3-10.5L1510.9,67.6z
	"/>
<path class="st0" d="M890.2,111.3l-5.5-20l20-5.5l5.5,20L890.2,111.3z M888.9,93.6l3.7,13.5l13.5-3.7l-3.7-13.5L888.9,93.6z"/>
<path class="st0" d="M660.4,225.6l-14-25l25-14l14,25L660.4,225.6z M651,201.9l10.7,19.1l19.1-10.7L670,191.1L651,201.9z"/>
<path class="st0" d="M441.2,518.5l-23-13.6l13.6-23l23,13.6L441.2,518.5z M422.8,503.7l17.2,10.2l10.2-17.2L433,486.5L422.8,503.7z"
	/>
<path class="st1" d="M1754.9,978.7l-37.6-22.2l22.2-37.6l37.6,22.2L1754.9,978.7z M1721.9,955.3l31.8,18.8l18.8-31.8l-31.8-18.8
	L1721.9,955.3z"/>
<path class="st1" d="M191,628l-12.6-0.1l0.1-12.6l12.6,0.1L191,628z M181.9,624.6l5.8,0.1l0.1-5.8l-5.8-0.1L181.9,624.6z"/>
<path class="st0" d="M417.7,1088.5l-14.7-32.3l32.3-14.7l14.7,32.3L417.7,1088.5z M407.5,1057.9l11.9,26.2l26.2-11.9l-11.9-26.2
	L407.5,1057.9z"/>
<path class="st0" d="M828.8,1297l-15.3-10.9l10.9-15.3l15.3,10.9L828.8,1297z M818.2,1285.3l9.8,7l7-9.8l-9.8-7L818.2,1285.3z"/>
</svg>
