<?xml version="1.0" encoding="utf-8"?>

<svg version="1.1" id="Calque_1" xmlns="http://www.w3.org/2000/svg" xmlns:xlink="http://www.w3.org/1999/xlink" x="0px" y="0px"
	 viewBox="0 0 1991.4 1425.2" style="enable-background:new 0 0 1991.4 1425.2;" xml:space="preserve">
<style type="text/css">
	.st0{fill:#00EAD1;}
	.st1{fill:#008875;}
</style>
<path class="st0" d="M1549.2,684.1l-0.1-9.4l9.4-0.1l0.1,9.4L1549.2,684.1z M1552.5,678v2.6h2.6V678H1552.5z"/>
<path class="st0" d="M602.4,798.1l-9.6-16.7l16.7-9.6l9.6,16.7L602.4,798.1z M597.4,782.6l6.2,10.9l10.9-6.2l-6.2-10.9L597.4,782.6z
	"/>
<path class="st0" d="M442.3,884l-11.6-18.9l18.9-11.6l11.6,18.9L442.3,884z M435.4,866.2l8,13.2l13.2-8l-8-13.2L435.4,866.2z"/>
<path class="st0" d="M833.6,1010.2l-27.4-9l9-27.4l27.4,9L833.6,1010.2z M810.5,999.1l21,6.9l6.9-21l-21-6.9L810.5,999.1z"/>
<path class="st0" d="M927,1122.6l-28.6-10.5l10.5-28.6l28.6,10.5L927,1122.6z M902.7,1110.1l22.3,8.2l8.2-22.3l-22.3-8.2
	L902.7,1110.1z"/>
<path class="st0" d="M1363.9,1062.7l-10.5-24.7l24.7-10.5l10.5,24.7L1363.9,1062.7z M1357.8,1039.8l7.9,18.5l18.5-7.9l-7.9-18.5
	L1357.8,1039.8z"/>
<path class="st0" d="M1496.8,364.2l-7.4-28l28-7.4l7.4,28L1496.8,364.2z M1493.5,338.6l5.7,21.5l21.5-5.7l-5.7-21.5L1493.5,338.6z"
	/>
<path class="st0" d="M1131.7,82.9l-28.8-12.3l12.3-28.8l28.8,12.3L1131.7,82.9z M1107.3,68.9l22.6,9.6l9.6-22.6l-22.6-9.6
	L1107.3,68.9z"/>
<path class="st0" d="M584.1,271.1l-14.2-14.8l14.8-14.2l14.2,14.8L584.1,271.1z M574.6,256.4l9.5,9.9l9.9-9.5l-9.5-9.9L574.6,256.4z
	"/>
<path class="st0" d="M412.8,554.5l-8.9-22.2l22.2-8.9l8.9,22.2L412.8,554.5z M408.2,534.1l6.4,16l16-6.4l-6.4-16L408.2,534.1z"/>
<path class="st1" d="M1840.4,401.1l-9.5-16.8l16.8-9.5l9.5,16.8L1840.4,401.1z M1835.5,385.6l6.1,10.9l10.9-6.1l-6.1-10.9
	L1835.5,385.6z"/>
<path class="st1" d="M47.9,695.2l-37.1-6.9l6.9-37.1l37.1,6.9L47.9,695.2z M14.7,685.5l30.5,5.7l5.7-30.5L20.4,655L14.7,685.5z"/>
<path class="st1" d="M393.4,1167.6l-6.6-11.7l11.7-6.6l6.6,11.7L393.4,1167.6z M391.4,1157.2l3.3,5.8l5.8-3.3l-3.3-5.8L391.4,1157.2
	z"/>
<path class="st0" d="M312.9,437.6L286,435l2.6-26.9l26.9,2.6L312.9,437.6z M289.6,431.9l20.2,2l2-20.2l-20.2-2L289.6,431.9z"/>
<path class="st0" d="M884.7,1299l-9.3-2.6l2.6-9.3l9.3,2.6L884.7,1299z M879.6,1294.1l2.8,0.8l0.8-2.8l-2.8-0.8L879.6,1294.1z"/>
<path class="st0" d="M1739.8,1218.2l-18.8-27.4l27.4-18.8l18.8,27.4L1739.8,1218.2z M1725.7,1191.6l15,21.9l21.9-15l-15-21.9
	L1725.7,1191.6z"/>
<path class="st0" d="M1823.4,681.1l-11.6-3.3l3.3-11.6l11.6,3.3L1823.4,681.1z M1815.9,675.5l5.2,1.4l1.4-5.2l-5.2-1.4L1815.9,675.5
	z"/>
<path class="st0" d="M1894.6,154l-7.3-16.1l16.1-7.3l7.3,16.1L1894.6,154z M1891.7,139.5l4.5,10l10-4.5l-4.5-10L1891.7,139.5z"/>
</svg>
