<?xml version="1.0" encoding="utf-8"?>

<svg version="1.1" id="Calque_1" xmlns="http://www.w3.org/2000/svg" xmlns:xlink="http://www.w3.org/1999/xlink" x="0px" y="0px"
	 viewBox="0 0 1991.4 1425.2" style="enable-background:new 0 0 1991.4 1425.2;" xml:space="preserve">
<style type="text/css">
	.st0{fill:#00EAD1;}
	.st1{fill:#008875;}
</style>
<path class="st0" d="M1428.6,927.5l-19.9-11.2l11.2-19.9l19.9,11.2L1428.6,927.5z M1413.2,915l14,7.9l7.9-14l-14-7.9L1413.2,915z"/>
<path class="st0" d="M635.7,530.8l-22.3-4.6l4.6-22.3l22.4,4.6L635.7,530.8z M617.4,523.5l15.8,3.3l3.3-15.8l-15.8-3.3L617.4,523.5z
	"/>
<path class="st0" d="M617.9,1078.2l-25.1-13.5l13.5-25.1l25.1,13.5L617.9,1078.2z M597.3,1063.3l19.2,10.3l10.3-19.2l-19.2-10.3
	L597.3,1063.3z"/>
<path class="st0" d="M1736.5,639.6l-5.8-25.6l25.6-5.8l5.8,25.6L1736.5,639.6z M1734.8,616.6l4.3,19l19-4.3l-4.3-19L1734.8,616.6z"
	/>
<path class="st0" d="M1617.3,357l-16-24.3l24.3-16l16,24.3L1617.3,357z M1606,333.7l12.3,18.6l18.6-12.3l-12.3-18.6L1606,333.7z"/>
<path class="st0" d="M410.5,305.1l-26-12.2l12.2-26l26,12.2L410.5,305.1z M389.1,291.2l19.9,9.4l9.4-19.9l-19.9-9.3L389.1,291.2z"/>
<path class="st1" d="M1850,725.5l-7.2-43.5l43.5-7.2l7.2,43.5L1850,725.5z M1846.6,684.8l6.1,36.8l36.8-6.1l-6.1-36.8L1846.6,684.8z
	"/>
<path class="st1" d="M1833.2,148.8l-19.4-23.7l23.6-19.4l19.4,23.6L1833.2,148.8z M1818.5,125.6l15.1,18.4l18.4-15.1l-15.1-18.4
	L1818.5,125.6z"/>
<path class="st1" d="M117.5,760.4l-8.7-24.7l24.7-8.7l8.7,24.7L117.5,760.4z M113.1,737.7l6.5,18.4l18.4-6.5l-6.5-18.4L113.1,737.7z
	"/>
<path class="st1" d="M410.5,1162.5l-23.1-28.1l28.1-23.1l23.1,28.1L410.5,1162.5z M392.1,1134.9l18.8,22.9l22.9-18.8l-18.8-22.9
	L392.1,1134.9z"/>
<path class="st1" d="M820.2,1384.2l-19.1-3.6l3.6-19.1l19.1,3.6L820.2,1384.2z M805.1,1377.9l12.5,2.3l2.3-12.5l-12.5-2.3
	L805.1,1377.9z"/>
<path class="st0" d="M1138.4,1298.6l-2.5-32.2l32.2-2.5l2.5,32.2L1138.4,1298.6z M1139.6,1269.5l2,25.5l25.5-2l-2-25.5
	L1139.6,1269.5z"/>
</svg>
