<?xml version="1.0" encoding="utf-8"?>

<svg version="1.1" id="Calque_1" xmlns="http://www.w3.org/2000/svg" xmlns:xlink="http://www.w3.org/1999/xlink" x="0px" y="0px"
	 viewBox="0 0 1991.4 1425.2" style="enable-background:new 0 0 1991.4 1425.2;" xml:space="preserve">
<style type="text/css">
	.st0{fill:#00EAD1;}
	.st1{fill:#008875;}
</style>
<path class="st0" d="M1295.6,936.7l-4.8-8.5l8.5-4.8l4.8,8.5L1295.6,936.7z M1295.4,929.4l1.5,2.7l2.7-1.5l-1.5-2.7L1295.4,929.4z"
	/>
<path class="st0" d="M1334.5,1010.7l-15.1-18.6L1338,977l15.1,18.6L1334.5,1010.7z M1324.1,992.7l10.8,13.3l13.3-10.8l-10.8-13.3
	L1324.1,992.7z"/>
<path class="st0" d="M1419.5,927.2l-14.3-12.9L1418,900l14.3,12.8L1419.5,927.2z M1409.9,914.1l9.3,8.4l8.3-9.3l-9.3-8.3
	L1409.9,914.1z"/>
<path class="st0" d="M1422.8,704.8l-11.4-1.9l1.9-11.4l11.4,1.9L1422.8,704.8z M1415.3,700.1l4.8,0.8l0.8-4.8l-4.8-0.8L1415.3,700.1
	z"/>
<path class="st0" d="M1526.1,565.9l-1.7-11.2l11.2-1.7l1.7,11.2L1526.1,565.9z M1528.3,557.5l0.7,4.6l4.6-0.7l-0.7-4.6L1528.3,557.5
	z"/>
<path class="st0" d="M1368.9,485.5l-7.4-20.5l20.5-7.4l7.4,20.5L1368.9,485.5z M1365.8,467.1l5.1,14.2l14.2-5.1L1380,462
	L1365.8,467.1z"/>
<path class="st0" d="M1400.7,403.6l-4.3-7.3l7.3-4.3l4.3,7.3L1400.7,403.6z M1401.1,397.6l0.9,1.5l1.5-0.9l-0.9-1.5L1401.1,397.6z"
	/>
<path class="st0" d="M1316,389.1l-10.6-13l13.1-10.6l10.6,13.1L1316,389.1z M1310.1,376.6l6.4,7.8l7.8-6.4l-6.4-7.8L1310.1,376.6z"
	/>
<rect x="1374.6" y="224.3" transform="matrix(0.4911 -0.8711 0.8711 0.4911 503.1945 1315.109)" class="st0" width="5.1" height="5.1"/>
<rect x="1167.1" y="336.1" transform="matrix(0.3346 -0.9424 0.9424 0.3346 459.1688 1327.1611)" class="st0" width="4.6" height="4.6"/>
<path class="st0" d="M1054,265.6l-9.3-0.1l0.1-9.3l9.3,0.1L1054,265.6z M1048.2,262.1h2.5v-2.5h-2.5V262.1z"/>
<path class="st0" d="M811.7,188.1l-5.6-17l17-5.6l5.6,17L811.7,188.1z M810.3,173.2l3.5,10.6l10.6-3.5l-3.5-10.6L810.3,173.2z"/>
<rect x="716.7" y="202.7" transform="matrix(0.8726 -0.4884 0.4884 0.8726 -8.8293 377.7334)" class="st0" width="6.1" height="6.1"/>
<path class="st0" d="M797.3,253.1l-9.4-12.1l12.1-9.4l9.4,12.1L797.3,253.1z M792.6,241.6l5.3,6.8l6.8-5.3l-5.3-6.8L792.6,241.6z"/>
<path class="st0" d="M757.1,252.3l-15-13.3l13.3-15l15,13.3L757.1,252.3z M746.8,238.7l9.9,8.8l8.8-9.9l-9.9-8.8L746.8,238.7z"/>
<path class="st0" d="M644.2,465.3l-12.5-4.8l4.8-12.5l12.5,4.8L644.2,465.3z M636,458.5l6.3,2.4l2.4-6.3l-6.3-2.4L636,458.5z"/>
<path class="st0" d="M655.6,502.3l-8.5-0.2l0.2-8.5l8.5,0.2L655.6,502.3z M650.6,498.8h1.8V497h-1.8V498.8z"/>
<polygon class="st0" points="592.6,785.7 592.1,781.8 596,781.3 596.5,785.1 "/>
<path class="st0" d="M596.3,712.9l-7.5-20.7l20.7-7.5l7.5,20.7L596.3,712.9z M593.1,694.2l5.2,14.4l14.4-5.2l-5.2-14.4L593.1,694.2z
	"/>
<rect x="746.4" y="938.2" transform="matrix(0.7864 -0.6177 0.6177 0.7864 -421.425 664.144)" class="st0" width="6.5" height="6.5"/>
<path class="st0" d="M890.4,965l-11.9-9.8l9.8-11.9l11.9,9.8L890.4,965z M883.3,954.8l6.7,5.5l5.5-6.7l-6.7-5.5L883.3,954.8z"/>
<path class="st0" d="M815.3,1007.5l-8.5-4.9l4.9-8.5l8.5,4.9L815.3,1007.5z M811.4,1001.4l2.7,1.5l1.5-2.7l-2.7-1.5L811.4,1001.4z"
	/>
<rect x="870.8" y="975.9" transform="matrix(0.3761 -0.9266 0.9266 0.3761 -361.8728 1420.3967)" class="st0" width="6" height="6"/>
<path class="st0" d="M999.2,929.3l-18.3-3.4l3.4-18.3l18.3,3.4L999.2,929.3z M984.8,923.2l11.7,2.2l2.2-11.7l-11.7-2.2L984.8,923.2z
	"/>
<path class="st0" d="M1101.9,1071.4l-13.8-0.1l0.1-13.8l13.8,0.1L1101.9,1071.4z M1091.5,1068l7.1,0.1l0.1-7.1l-7.1-0.1L1091.5,1068
	z"/>
<path class="st0" d="M1161.1,962.8l-3.4-20.1l20.1-3.5l3.5,20.1L1161.1,962.8z M1161.5,945.5l2.3,13.5l13.5-2.3l-2.3-13.5
	L1161.5,945.5z"/>
<rect x="1107.6" y="953.1" transform="matrix(0.9488 -0.3158 0.3158 0.9488 -245.0693 399.6107)" class="st0" width="5.7" height="5.7"/>
<path class="st0" d="M466.1,868.2l-9.3-27.3l27.3-9.3l9.3,27.3L466.1,868.2z M461.1,843.1l7.1,20.9l20.9-7.1L482,836L461.1,843.1z"
	/>
<path class="st0" d="M769.2,987.4l-20.6-4.6l4.6-20.6l20.6,4.6L769.2,987.4z M752.6,980.2l14,3.1l3.1-14l-14-3.1L752.6,980.2z"/>
<path class="st0" d="M1006,1070.5l-5.9-25.8l25.8-5.9l5.9,25.8L1006,1070.5z M1004.1,1047.1l4.4,19.3l19.3-4.4l-4.4-19.3
	L1004.1,1047.1z"/>
<path class="st0" d="M999.9,1197.2l-6.8-20.2l20.2-6.8l6.8,20.2L999.9,1197.2z M997.4,1179.1l4.7,13.8l13.8-4.7l-4.7-13.8
	L997.4,1179.1z"/>
<path class="st0" d="M1090,1014.1l-10.3-19.7l19.7-10.3l10.3,19.7L1090,1014.1z M1084.2,995.8l7.2,13.7l13.7-7.2l-7.2-13.7
	L1084.2,995.8z"/>
<path class="st0" d="M1430.6,1103.9l-21.5-21.1l21.1-21.5l21.5,21.1L1430.6,1103.9z M1413.9,1082.7l16.7,16.4l16.4-16.7l-16.7-16.4
	L1413.9,1082.7z"/>
<path class="st0" d="M1463.6,1058.2l-17.4-10l10-17.5l17.4,10L1463.6,1058.2z M1450.7,1046.9l11.6,6.6l6.6-11.6l-11.6-6.6
	L1450.7,1046.9z"/>
<path class="st0" d="M1604.4,971.9l-26.8-13.7l13.7-26.8l26.8,13.7L1604.4,971.9z M1582.1,956.8l20.8,10.6l10.6-20.8l-20.8-10.6
	L1582.1,956.8z"/>
<path class="st0" d="M1542.8,904.3l-27.8-7.1l7.1-27.8l27.8,7.1L1542.8,904.3z M1519.2,894.7l21.2,5.5l5.5-21.2l-21.2-5.5
	L1519.2,894.7z"/>
<path class="st0" d="M1682.5,732.9l-22.2-0.7l0.7-22.2l22.2,0.7L1682.5,732.9z M1663.7,729l15.5,0.5l0.5-15.5l-15.5-0.5L1663.7,729z
	"/>
<path class="st0" d="M1266.8,152.5l-23.2-19.1l19.1-23.2l23.2,19.1L1266.8,152.5z M1248.3,132.9l18,14.8l14.8-18l-18-14.8
	L1248.3,132.9z"/>
<path class="st0" d="M1336.5,63.7L1309,52.2l11.5-27.5l27.5,11.5L1336.5,63.7z M1313.4,50.4l21.3,8.9l8.9-21.3l-21.3-8.9
	L1313.4,50.4z"/>
<path class="st0" d="M583.8,317.2l-14.2-11.5l11.5-14.2l14.2,11.5L583.8,317.2z M574.4,305.1l9,7.3l7.3-9l-9-7.3L574.4,305.1z"/>
<path class="st0" d="M525.6,311.6l-21.7-4.3l4.3-21.7l21.7,4.3L525.6,311.6z M507.8,304.7l15.1,3l3-15.1l-15.1-3L507.8,304.7z"/>
<path class="st0" d="M510.8,489.2l-17.5-1.3l1.3-17.5l17.5,1.3L510.8,489.2z M496.9,484.8l10.8,0.8l0.8-10.8l-10.8-0.8L496.9,484.8z
	"/>
<path class="st0" d="M458,811.8l-6.8-25.5l25.5-6.8l6.8,25.5L458,811.8z M455.3,788.7l5.1,19l19-5l-5.1-19L455.3,788.7z"/>
<path class="st1" d="M1544.7,1418.1l-6.2-11.1l11.1-6.2l6.2,11.1L1544.7,1418.1z M1543,1408.3l2.9,5.2l5.2-2.9l-2.9-5.2L1543,1408.3
	z"/>
<path class="st1" d="M1673.6,1083.4l-26.6-22.8l22.8-26.6l26.6,22.8L1673.6,1083.4z M1651.7,1060.2l21.5,18.4l18.4-21.5l-21.5-18.4
	L1651.7,1060.2z"/>
<polygon class="st1" points="1832.6,1171.2 1827.8,1169.3 1829.6,1164.5 1834.5,1166.3 "/>
<path class="st1" d="M1955.7,955.7l-45.7-8.6l8.6-45.7l45.7,8.6L1955.7,955.7z M1913.9,944.5l39.1,7.3l7.3-39.1l-39.1-7.3
	L1913.9,944.5z"/>
<rect x="1875.2" y="122" transform="matrix(0.9432 -0.3322 0.3322 0.9432 65.2449 630.9061)" class="st1" width="5.3" height="5.3"/>
<path class="st1" d="M1710.7,93.4l-6.1-5.2l5.2-6.1l6.1,5.2L1710.7,93.4z M1709.3,87.8l1,0.9l0.9-1l-1-0.9L1709.3,87.8z"/>
<path class="st1" d="M445.4,148.3l-27.8-23.9l23.9-27.8l27.8,23.9L445.4,148.3z M422.3,124.1l22.7,19.5l19.5-22.7l-22.7-19.5
	L422.3,124.1z"/>
<path class="st1" d="M320.7,447.8l-16.1-6.1l6.1-16.1l16.1,6.1L320.7,447.8z M308.9,439.8l9.8,3.7l3.7-9.8l-9.8-3.7L308.9,439.8z"/>
<path class="st1" d="M215.5,798.7l-4-24.4l24.4-4l4,24.4L215.5,798.7z M215.3,777.1l2.9,17.7l17.7-2.9l-2.9-17.7L215.3,777.1z"/>
<path class="st1" d="M494.9,1264.7l-27.9-23.9l23.9-27.9l27.9,23.9L494.9,1264.7z M471.8,1240.4l22.7,19.5l19.5-22.7l-22.7-19.5
	L471.8,1240.4z"/>
<path class="st1" d="M356.3,1283.7l-7-4.1l4.1-7l7,4.1L356.3,1283.7z M353.9,1278.4l1.2,0.7l0.7-1.2l-1.2-0.7L353.9,1278.4z"/>
<path class="st1" d="M910,1418.9l-26.1-0.3l0.3-26.1l26.1,0.3L910,1418.9z M887.4,1415.3l19.3,0.2l0.2-19.3l-19.3-0.2L887.4,1415.3z
	"/>
<path class="st0" d="M637.2,77.5L605.7,55l22.5-31.5L659.7,46L637.2,77.5z M610.4,54.2l26,18.6l18.6-26l-26-18.6L610.4,54.2z"/>
<rect x="270.4" y="395.9" transform="matrix(0.4321 -0.9018 0.9018 0.4321 -204.2515 472.3619)" class="st0" width="5" height="5"/>
<path class="st0" d="M461.6,267.7l-16.5-4.6l4.6-16.5l16.5,4.6L461.6,267.7z M449.2,260.8l10.1,2.8l2.8-10.1l-10.1-2.8L449.2,260.8z
	"/>
<path class="st0" d="M349.9,528l-0.6-7.4l7.4-0.6l0.6,7.4L349.9,528z M353,523.6l0.1,0.7l0.7-0.1l-0.1-0.7L353,523.6z"/>
<path class="st0" d="M387.3,733.4l-3-11.6l11.6-3l3,11.6L387.3,733.4z M388.4,724.2l1.3,5.1l5.1-1.3l-1.3-5.1L388.4,724.2z"/>
<path class="st0" d="M477.8,998l-5.4-7.8l7.8-5.4l5.4,7.8L477.8,998z M477.1,991.1l1.5,2.3l2.3-1.5l-1.5-2.3L477.1,991.1z"/>
<rect x="485" y="1028.8" transform="matrix(0.7149 -0.6992 0.6992 0.7149 -582.1866 634.949)" class="st0" width="5.2" height="5.2"/>
<path class="st0" d="M1421.1,1176.8l-6.4-14l14-6.4l6.4,14L1421.1,1176.8z M1419.2,1164.4l3.6,7.9l7.9-3.6l-3.6-7.9L1419.2,1164.4z"
	/>
<path class="st0" d="M1619,1141.4l-7.9-8.1l8.1-7.9l7.9,8.1L1619,1141.4z M1615.8,1133.3l3.2,3.3l3.3-3.2l-3.2-3.3L1615.8,1133.3z"
	/>
<path class="st0" d="M1696.5,1023.4l-17.8-12.8l12.8-17.8l17.8,12.8L1696.5,1023.4z M1683.4,1009.9l12.3,8.8l8.8-12.3l-12.3-8.8
	L1683.4,1009.9z"/>
<path class="st0" d="M1735.9,1110.3l-20.9-10l10-20.9l20.9,10L1735.9,1110.3z M1719.5,1098.7l14.9,7.1l7.1-14.9l-14.9-7.1
	L1719.5,1098.7z"/>
<path class="st0" d="M1809.9,693.9l-31.9-3.1l3.1-31.9l31.9,3.1L1809.9,693.9z M1781.7,687.8l25.2,2.5l2.5-25.2l-25.2-2.5
	L1781.7,687.8z"/>
<path class="st0" d="M1794.1,582l-2.5-32.2l32.2-2.5l2.5,32.2L1794.1,582z M1795.2,552.9l2,25.5l25.5-2l-2-25.5L1795.2,552.9z"/>
<path class="st0" d="M1915.3,629.9l-1.9-7.2l7.2-1.9l1.9,7.2L1915.3,629.9z M1917.5,625.1l0.2,0.7l0.7-0.2l-0.2-0.7L1917.5,625.1z"
	/>
<path class="st0" d="M1692.7,297.9l-9.8-14.3l14.3-9.8l9.8,14.3L1692.7,297.9z M1687.6,284.5l6,8.7l8.7-6l-6-8.7L1687.6,284.5z"/>
<path class="st0" d="M1668.5,224.4l-16.2-16.5l16.5-16.2l16.2,16.5L1668.5,224.4z M1657.1,208l11.4,11.7l11.7-11.4l-11.4-11.7
	L1657.1,208z"/>
</svg>
